<svg version="1.2" xmlns="http://www.w3.org/2000/svg" viewBox="0 0 84 63" width="300" height="225">
	<title>logo-svg</title>
	<style>
		.s0 { fill: #030303 } 
		.s1 { fill: #f8db4e } 
		.s2 { fill: #ee5b64 } 
		.s3 { fill: #496cac } 
		.s4 { fill: #39b2be } 
	</style>
	<g id="Group 1000003968">
		<path id="Vector" class="s0" d="m-147.2 56.3l-8.8-19.3h-8.5v24.7h5.3v-19.6l9.1 19.6h5.8l9.1-19.6v19.6h5.3v-24.7h-8.6z"/>
		<path id="Vector_2" fill-rule="evenodd" class="s0" d="m-108.5 37.1l11.5 24.6h-6l-2.3-5.2h-13.7l-2.3 5.2h-5.9l11.4-24.6zm1.1 14.9l-4.7-10.6-4.8 10.6z"/>
		<path id="Vector_3" class="s0" d="m-69.2 37h-6l-13.6 17.1v-17.1h-5.6v24.7h5l8.1-9.9 6.1 9.9h6.3l-8.8-14.2z"/>
		<path id="Vector_4" class="s0" d="m-47.2 48.4q-2.7-0.9-5.5-1.2l-5.1-0.6c-1.2-0.1-2.3-0.4-3.3-0.9q-0.5-0.3-0.7-0.7-0.3-0.5-0.3-1 0.1-0.8 0.5-1.4 0.4-0.6 1.1-0.8c1.4-0.6 2.8-0.9 4.3-0.8q1.7-0.1 3.3 0.4c0.9 0.2 1.6 0.7 2.3 1.3 0.5 0.5 0.8 1.1 0.9 1.8h5.7c-0.1-1.5-0.7-3-1.7-4.1-1.2-1.3-2.7-2.3-4.3-2.9-2-0.7-4-1.1-6.1-1-2.1-0.1-4.1 0.2-6.1 0.9-1.6 0.5-3 1.4-4.1 2.6-0.9 1.2-1.4 2.6-1.4 4.1 0 1 0.1 1.9 0.5 2.7 0.4 0.8 0.9 1.6 1.7 2.2 2 1.3 4.4 2.1 6.9 2.2l5 0.6c1.2 0 2.5 0.3 3.6 0.9q0.4 0.3 0.7 0.8 0.3 0.5 0.2 1c0 0.5-0.1 1-0.4 1.5-0.3 0.4-0.8 0.7-1.3 0.9-1.4 0.6-3 0.9-4.6 0.8q-1.8 0.1-3.5-0.5c-0.9-0.3-1.8-0.8-2.4-1.4-0.6-0.6-1-1.4-1.1-2.2h-5.7c0.1 1.6 0.7 3.2 1.8 4.5 1.1 1.3 2.7 2.4 4.4 3 2 0.7 4.2 1.1 6.4 1 2.2 0.1 4.3-0.3 6.3-1 1.7-0.5 3.1-1.5 4.2-2.9 1-1.2 1.5-2.7 1.5-4.3 0-1.2-0.3-2.3-0.9-3.4-0.7-1-1.7-1.7-2.9-2.1"/>
		<path id="Vector_5" fill-rule="evenodd" class="s0" d="m-15.7 51.7c0.6 1 0.9 2.1 0.9 3.3 0 1.2-0.3 2.5-1 3.5-0.6 1.1-1.6 1.9-2.7 2.4-1.5 0.7-3 1-4.6 0.9h-17.2v-24.6h16.7c1.9-0.1 3.8 0.4 5.3 1.6q0.9 0.8 1.4 1.9 0.5 1.2 0.5 2.4c0 1-0.3 2-0.7 2.9-0.6 1-1.4 1.8-2.3 2.3q-0.4 0.3-0.8 0.5 0.9 0.2 1.8 0.5c1.1 0.5 2.1 1.3 2.7 2.3m-9.6-10.3h-9.5l-0.1 5.9h9.4c0.9 0 1.8-0.3 2.4-0.9q0.6-0.4 0.8-1 0.3-0.6 0.2-1.3 0-0.6-0.2-1.1-0.2-0.5-0.6-0.8c-0.7-0.6-1.5-0.9-2.4-0.8zm3.8 15.6q0.5-0.5 0.8-1.1 0.2-0.6 0.2-1.3 0-0.7-0.3-1.3-0.3-0.7-0.8-1.1c-1-0.7-2.2-1-3.3-0.9h-10.1l0.1 6.5h10.7c1 0.1 1.9-0.2 2.7-0.8z"/>
		<path id="Vector_6" class="s0" d="m-144.2 24.5h-5.2v4.8h5.2z"/>
		<path id="Vector_7" fill-rule="evenodd" class="s0" d="m-37.9 20.6q-1.7 0-3.3-0.5-0.8-0.3-1.3-0.8-0.6-0.5-0.9-1.3c-0.5 1-0.7 2.6-3.6 2.6h-36.9q-1.6 0-3.1-0.4c0-0.5-0.2-1-0.6-1.3-0.3-0.4-0.8-0.5-1.3-0.6-0.5 0-0.9 0.2-1.3 0.5-0.4 0.4-0.6 0.8-0.6 1.3-1.1 0.4-2.2 0.6-3.3 0.5h-1.9c-1 0-1.9-0.2-2.7-0.6-0.7-0.4-1.3-1-1.7-1.7-0.4 0.8-1 1.4-1.8 1.8-1.1 0.4-2.2 0.6-3.3 0.5h-2c-0.9 0.1-1.8-0.1-2.5-0.5-0.8-0.4-1.5-1.1-1.9-1.9-0.3 0.8-1 1.5-1.8 1.9-1 0.4-2.1 0.6-3.2 0.5h-9.1q-1.4 0-2.6-0.4-0.7-0.3-1.3-0.7-0.5-0.5-0.8-1.2c-0.4 0.8-1.1 1.5-1.9 1.8q-1.6 0.6-3.4 0.5h-23.6q-1.1 0.1-2.2-0.3-1.1-0.3-1.9-1.1c-0.9-1.3-1.3-2.8-1.2-4.3v-9.7q0-0.2 0.1-0.4 0.2-0.1 0.3-0.1h4.2q0.1 0 0.2 0 0.1 0.1 0.1 0.1 0.1 0.1 0.1 0.2 0.1 0.1 0.1 0.2v8.6c-0.1 0.6 0.1 1.3 0.5 1.9 0.4 0.3 1 0.5 1.6 0.5h20.3q0.6 0 1.2-0.2 0.5-0.2 0.7-0.7 0.2-0.6 0.3-1.2c0-0.5 0-12.2 0-12.2h5v11.6q0.1 0.6 0.3 1.1 0.3 0.6 0.8 0.9c0.8 0.5 1.8 0.7 2.7 0.7h7.9q0.7 0 1.3-0.3 0.4-0.3 0.6-0.8 0.2-0.7 0.2-1.4c0-0.6 0-8.3 0-8.3h5.2v8q-0.1 0.6 0.1 1.1 0.2 0.6 0.6 1c0.7 0.8 3.2 0.8 4.2 0.5q0.3 0 0.6-0.2 0.2-0.2 0.4-0.4 0.3-0.7 0.3-1.4c0.1-0.6 0.1-8.6 0.1-8.6h5.1v8q-0.1 0.6 0.1 1.2 0.3 0.5 0.7 0.9c1.2 0.7 2.6 0.8 4 0.5 0.4-0.1 0.7-0.3 0.9-0.7q0.4-0.6 0.5-1.3c0.1-0.7 0.1-12.2 0.1-12.2h5.3v11.5q0 0.6 0.3 1.2 0.2 0.6 0.7 0.9c0.9 0.5 1.8 0.8 2.8 0.7 0 0 34.9 0 35.4-0.1q0.6-0.2 1.1-0.6 0.4-0.5 0.5-1.1 0.1-0.9 0.1-1.7v-0.2q0-4-4.6-4h-27.5q-0.1 0-0.2 0 0 0-0.1-0.1-0.1-0.1-0.1-0.1 0-0.1 0-0.2v-3.2q0-0.2 0-0.3 0.1-0.2 0.2-0.3 0.3-0.3 0.5-0.5l9.8-11.5q0-0.1 0.1-0.1 0-0.1 0.1-0.1 0.1 0 0.2 0 0.1 0 0.1 0.1l2.9 2.4q0.1 0.1 0.2 0.1 0 0.1 0 0.2 0.1 0.1 0.1 0.2-0.1 0.1-0.1 0.1l-7.5 8.8c2.1 0.1 23.6-0.3 24.5 0.3 1.2 0.1 2.4 0.5 3.4 1.1 1 0.6 1.8 1.4 2.3 2.4 0.6 1.4 0.8 2.9 0.8 4.3v1.5c0 1.9 1.8 2.6 3.7 2.6 0 0 3.2-0.1 3.5-0.2q0.6-0.3 1-0.8 0.4-0.5 0.6-1.2 0.3-1.6 0.2-3.3c0-1.5 0.3-3 0.8-4.4 0.4-1.2 1.1-2.2 1.9-3 0.8-0.8 1.8-1.4 2.9-1.7 2.4-0.7 4.9-0.7 7.3 0 1.2 0.3 2.2 0.9 3 1.7 0.9 0.9 1.6 2 2 3.1 0.9 3 0.9 6.3 0 9.3-0.4 1.1-1.1 2.1-2 3-0.8 0.8-1.8 1.4-2.9 1.7-2.6 0.8-5.3 0.8-7.9 0-1.1-0.4-2.2-1.1-3-2q-0.4 0.7-1.1 1.2-0.6 0.4-1.3 0.7-0.7 0.2-1.4 0.3-0.7 0.1-1.5 0.1zm10.7-13.7c-1.5 1.6-1.5 6.8 0 8.2 1.2 1.7 5.2 1.7 6.5 0 0.7-1.2 1.1-2.7 1-4.1q0-5.5-4.3-5.5-1-0.1-1.8 0.3-0.9 0.4-1.4 1.1z"/>
		<path id="Vector_8" class="s1" d="m0.8 61.7l30.4-30.5v30.5z"/>
		<path id="Vector_9" class="s2" d="m83.2 61.7h-30.5v-30.5z"/>
		<path id="Vector_10" class="s3" d="m31.2 0.8h-30.4v30.4z"/>
		<path id="Vector_11" class="s4" d="m83.2 31.2v-30.4h-30.5z"/>
	</g>
</svg>